<?xml version="1.0" standalone="no"?>
<!DOCTYPE svg PUBLIC "-//W3C//DTD SVG 20010904//EN"
 "http://www.w3.org/TR/2001/REC-SVG-20010904/DTD/svg10.dtd">
<svg version="1.0" xmlns="http://www.w3.org/2000/svg"
 width="700.000000pt" height="700.000000pt" viewBox="0 0 700.000000 700.000000"
 preserveAspectRatio="xMidYMid meet">
<metadata>
Created by potrace 1.14, written by Peter Selinger 2001-2017
</metadata>
<g transform="translate(0.000000,700.000000) scale(0.100000,-0.100000)"
fill="#000000" stroke="none">
<path d="M3383 6750 c-56 -12 -14 12 -853 -473 -410 -236 -878 -507 -1040
-600 -162 -94 -320 -187 -351 -208 -67 -45 -120 -104 -157 -174 l-27 -50 0
-2000 0 -2000 33 -66 c37 -76 142 -183 233 -237 127 -75 350 -144 509 -157
149 -13 147 -13 154 -49 11 -58 64 -152 117 -205 178 -181 480 -284 834 -284
226 0 396 33 545 108 99 49 2218 1273 2270 1310 62 45 147 137 199 214 64 93
138 255 169 368 l27 98 3 1440 c3 1606 6 1521 -66 1646 -53 92 -171 207 -253
247 -162 78 -358 81 -541 7 -32 -13 -531 -297 -1110 -631 -579 -335 -1078
-617 -1108 -628 -68 -23 -229 -27 -310 -7 -122 30 -222 105 -236 176 -9 49 1
80 39 120 20 22 412 253 1092 646 583 335 1070 621 1082 635 32 35 39 70 20
109 -31 66 -118 110 -236 121 -124 12 -135 7 -808 -382 -1286 -743 -1509 -871
-1552 -887 -102 -41 -280 -40 -395 3 -140 53 -209 161 -157 246 33 55 -49 6
1511 903 394 227 678 397 698 417 49 51 45 95 -12 150 -26 24 -64 48 -92 58
-61 20 -176 28 -231 16z m1801 -2263 c20 -28 21 -41 24 -407 2 -237 -1 -401
-7 -437 -14 -72 -45 -137 -85 -174 -40 -37 -1135 -669 -1159 -669 -31 0 -54
18 -68 52 -11 26 -14 114 -14 433 0 369 1 404 19 450 44 115 25 101 642 457
614 355 606 351 648 295z"/>
</g>
</svg>
