<?xml version="1.0" encoding="UTF-8"?>
<!DOCTYPE svg PUBLIC "-//W3C//DTD SVG 1.1//EN" "http://www.w3.org/Graphics/SVG/1.1/DTD/svg11.dtd">
<!-- Creator: CorelDRAW -->
<svg xmlns="http://www.w3.org/2000/svg" xml:space="preserve" width="1.66666in" height="1.66666in" version="1.1" style="shape-rendering:geometricPrecision; text-rendering:geometricPrecision; image-rendering:optimizeQuality; fill-rule:evenodd; clip-rule:evenodd"
viewBox="0 0 1666.66 1666.66"
 xmlns:xlink="http://www.w3.org/1999/xlink"
 xmlns:xodm="http://www.corel.com/coreldraw/odm/2003">
 <defs>
  <style type="text/css">
   <![CDATA[
    .fil1 {fill:white}
    .fil0 {fill:#0068B3}
    .fil2 {fill:#00518B;fill-rule:nonzero}
    .fil3 {fill:#0068B3;fill-rule:nonzero}
   ]]>
  </style>
 </defs>
 <g id="Layer_x0020_1">
  <metadata id="CorelCorpID_0Corel-Layer"/>
  <g id="_1452012304">
   <path class="fil0" d="M618.51 556.03c-0.56,-11.17 6.3,-22.31 20.75,-30.65 29.34,-16.94 58.69,-33.89 88.06,-50.85 29.34,-16.94 58.72,-33.91 88.1,-50.88 8.59,-4.96 23,-4.74 32.01,0.47 9.02,5.21 9.45,13.5 0.87,18.46 -29.34,16.95 -58.68,33.85 -87.97,50.78 -29.3,16.93 -58.56,33.81 -87.89,50.76 -11.57,6.69 -11,17.89 1.25,24.92 0,0 0,0 0,0 12.3,6.97 31.83,7.2 43.41,0.52 29.24,-16.89 58.51,-33.77 87.75,-50.66 29.26,-16.89 58.54,-33.82 87.8,-50.71 8.58,-4.95 22.97,-4.74 32.01,0.47 9.03,5.21 9.41,13.54 0.86,18.46 -29.16,16.83 -58.32,33.67 -87.45,50.48 -29.11,16.81 -58.28,33.67 -87.41,50.48 -11.55,6.67 -11,17.85 1.3,24.87 0,0 0,0 0,0 12.25,6.97 31.83,7.22 43.36,0.57 29.07,-16.8 58.21,-33.59 87.28,-50.39 29.09,-16.79 58.25,-33.63 87.33,-50.43 1.27,-0.74 2.67,-1.35 4.17,-1.87 30.05,-12.41 55.59,-1.05 67.29,19.45 4.29,5.74 6.81,14.26 6.81,24.98l0 1.13 0 222.51c0,27.96 -17.17,60.78 -38.14,72.87l-6.44 3.72c-0.26,0.17 -0.53,0.33 -0.81,0.5 -29.12,16.81 -58.24,33.63 -87.32,50.4 -28.57,16.48 -57.12,32.96 -85.69,49.45l-1.63 0.94c-14.33,8.27 -33.61,12.18 -53.07,11.82 -19.46,-0.36 -39.18,-4.98 -54.45,-13.78 0,0 0,0 0,0 -14.97,-8.65 -22.95,-19.8 -23.77,-30.87 -19.5,-0.33 -39.26,-4.98 -54.54,-13.78 0,0 0,0 0,0 -15.23,-8.82 -23.26,-20.2 -23.81,-31.47 -0.04,-0.84 -0.04,-1.69 0,-2.53l0 -320.18z"/>
   <rect class="fil1" transform="matrix(0.189706 -1.09527E-001 -0 0.298904 864.846 668.2)" width="591.52" height="300.95" rx="53.33" ry="53.33"/>
  </g>
  <g id="_1451992304">
   <path class="fil2" d="M147.79 1217.06c0,10.05 2,17.87 6,23.53 4,5.66 9.57,8.48 16.7,8.48 7.04,0 12.52,-2.83 16.48,-8.44 3.96,-5.61 5.91,-13.44 5.91,-23.57 0,-10.96 -1.83,-19.05 -5.44,-24.27 -3.65,-5.22 -9.31,-7.83 -16.96,-7.83 -7.74,0 -13.44,2.65 -17.14,7.91 -3.7,5.26 -5.57,13.31 -5.57,24.19zm-53.24 67.81l0 -187.68 53.76 0 0 63.68c5.44,-6.13 11.53,-10.7 18.18,-13.79 6.65,-3.09 13.83,-4.65 21.44,-4.65 18.18,0 32.8,6.7 43.8,20.09 11,13.44 16.48,31.31 16.48,53.67 0,22.18 -5.44,40.02 -16.35,53.45 -10.92,13.44 -25.31,20.18 -43.15,20.18 -9.35,0 -17.75,-1.78 -25.23,-5.39 -7.48,-3.61 -14.18,-9.13 -20.14,-16.53l0 16.96 -48.8 0zm311.89 -138.53l0 138.53 -50.32 0 0 -20.4c-6.48,8.13 -13.66,14.22 -21.62,18.18 -7.96,3.96 -16.92,5.91 -26.96,5.91 -8.4,0 -15.92,-1.39 -22.53,-4.22 -6.65,-2.78 -12.26,-6.96 -16.83,-12.48 -4.05,-4.92 -6.96,-10.92 -8.66,-18.01 -1.7,-7.09 -2.57,-19.01 -2.57,-35.75l0 -71.77 55.07 0 0 71.51c0,10.52 1.39,17.79 4.22,21.83 2.78,4.05 7.61,6.09 14.53,6.09 6.87,0 12.05,-2.35 15.48,-7.05 3.44,-4.65 5.13,-11.7 5.13,-21.14l0 -71.24 55.06 0zm16.91 138.53l0 -187.68 55.02 0 0 91.6 36.31 -42.45 61.81 0 -51.45 51.11 58.46 87.43 -65.46 0 -30.23 -49.58 -9.44 9.7 0 39.89 -55.02 0zm310.63 -138.53l0 138.53 -50.32 0 0 -20.4c-6.48,8.13 -13.66,14.22 -21.62,18.18 -7.96,3.96 -16.92,5.91 -26.96,5.91 -8.4,0 -15.92,-1.39 -22.53,-4.22 -6.65,-2.78 -12.26,-6.96 -16.83,-12.48 -4.05,-4.92 -6.96,-10.92 -8.66,-18.01 -1.7,-7.09 -2.57,-19.01 -2.57,-35.75l0 -71.77 55.07 0 0 71.51c0,10.52 1.39,17.79 4.22,21.83 2.78,4.05 7.61,6.09 14.53,6.09 6.87,0 12.05,-2.35 15.48,-7.05 3.44,-4.65 5.13,-11.7 5.13,-21.14l0 -71.24 55.06 0z"/>
   <path class="fil3" d="M784.5 1284.87l-45.63 -138.53 54.54 0 20.53 84.51 21.4 -84.51 46.5 0 21.44 84.51 20.62 -84.51 52.37 0 -43.58 138.53 -54.02 0 -20.01 -80.16 -20.14 80.16 -54.02 0zm290.23 -61.81c-5.26,2.05 -12.27,4.22 -21.01,6.52 -13.79,3.61 -20.66,8.48 -20.66,14.61 0,3.92 1.35,6.96 4.09,9.18 2.74,2.22 6.61,3.35 11.61,3.35 9.18,0 15.83,-2.13 20.05,-6.39 4.22,-4.22 6.31,-11 6.31,-20.27 0,-1.96 -0.04,-3.39 -0.09,-4.39 -0.04,-1 -0.13,-1.87 -0.3,-2.61zm5.09 61.81l-3.43 -13.27c-7.05,6.22 -14.66,10.79 -22.79,13.79 -8.13,2.96 -17.31,4.43 -27.54,4.43 -15.61,0 -27.7,-3.83 -36.23,-11.52 -8.57,-7.7 -12.83,-18.53 -12.83,-32.54 0,-13.7 4.22,-23.79 12.61,-30.36 8.39,-6.52 24.31,-11.26 47.67,-14.27 2.96,-0.39 6.96,-0.87 11.96,-1.39 17.44,-1.87 26.14,-6.35 26.14,-13.53 0,-3.96 -1.61,-6.87 -4.79,-8.7 -3.17,-1.83 -8.22,-2.74 -15.09,-2.74 -5.7,0 -10.09,1.13 -13.14,3.35 -3.04,2.26 -4.83,5.74 -5.35,10.39l-53.76 0c0.22,-15.53 6.61,-27.27 19.09,-35.23 12.48,-7.96 30.83,-11.92 55.06,-11.92 11.35,0 21.88,1.04 31.53,3.17 9.61,2.13 17.14,5 22.49,8.57 6.57,4.39 11.13,9.39 13.74,14.96 2.65,5.57 3.96,13.53 3.96,23.88l0 77.25c0,2.57 0.52,4.83 1.52,6.78 1,2 2.52,3.65 4.48,4.92l0 3.96 -55.33 0zm68.54 0l0 -138.53 50.84 0 0 25.27c3.65,-10.05 8.87,-17.35 15.7,-22.01 6.83,-4.65 15.96,-6.96 27.36,-6.96l4.96 0 0 54.93c-2.04,-0.17 -4,-0.3 -5.87,-0.43 -1.87,-0.13 -3.65,-0.17 -5.35,-0.17 -11.14,0 -19.31,2.48 -24.53,7.48 -5.22,5 -7.83,12.87 -7.83,23.57l0 56.85 -55.28 0zm154.39 -70.2c0,11.13 1.83,19.4 5.48,24.79 3.65,5.39 9.22,8.09 16.7,8.09 7.87,0 13.74,-2.65 17.53,-7.92 3.78,-5.26 5.65,-13.52 5.65,-24.7 0,-10.05 -2,-17.83 -6.05,-23.35 -4.04,-5.52 -9.74,-8.26 -17.13,-8.26 -7.48,0 -13.05,2.61 -16.7,7.83 -3.65,5.22 -5.48,13.05 -5.48,23.53zm-45.76 85.12l54.54 0c0.7,3.31 2.3,5.7 4.78,7.13 2.52,1.44 6.31,2.18 11.4,2.18 8.09,0 13.57,-1.78 16.4,-5.35 2.83,-3.57 4.26,-11.44 4.26,-23.57l0 -7.52c-4.65,4.48 -10.22,7.87 -16.61,10.13 -6.44,2.22 -13.79,3.35 -22.01,3.35 -18.66,0 -33.62,-6.39 -44.89,-19.18 -11.27,-12.79 -16.92,-29.79 -16.92,-51.02 0,-22.31 5.39,-40.15 16.14,-53.41 10.74,-13.27 25.09,-19.88 43.02,-19.88 10,0 18.75,1.78 26.19,5.31 7.44,3.52 13.87,9 19.31,16.4l0 -18.01 48.8 0 0 127.83c0,24.14 -5.91,41.23 -17.74,51.37 -11.79,10.09 -31.71,15.13 -59.76,15.13 -19.44,0 -34.97,-3.57 -46.63,-10.7 -11.61,-7.13 -18.4,-17.18 -20.27,-30.19zm254.7 -76.72c-5.26,2.05 -12.27,4.22 -21.01,6.52 -13.79,3.61 -20.66,8.48 -20.66,14.61 0,3.92 1.35,6.96 4.09,9.18 2.74,2.22 6.61,3.35 11.61,3.35 9.18,0 15.83,-2.13 20.05,-6.39 4.22,-4.22 6.31,-11 6.31,-20.27 0,-1.96 -0.04,-3.39 -0.09,-4.39 -0.04,-1 -0.13,-1.87 -0.3,-2.61zm5.09 61.81l-3.43 -13.27c-7.05,6.22 -14.66,10.79 -22.79,13.79 -8.13,2.96 -17.31,4.43 -27.54,4.43 -15.61,0 -27.7,-3.83 -36.23,-11.52 -8.57,-7.7 -12.83,-18.53 -12.83,-32.54 0,-13.7 4.22,-23.79 12.61,-30.36 8.39,-6.52 24.31,-11.26 47.67,-14.27 2.96,-0.39 6.96,-0.87 11.96,-1.39 17.44,-1.87 26.14,-6.35 26.14,-13.53 0,-3.96 -1.61,-6.87 -4.79,-8.7 -3.17,-1.83 -8.22,-2.74 -15.09,-2.74 -5.7,0 -10.09,1.13 -13.14,3.35 -3.04,2.26 -4.83,5.74 -5.35,10.39l-53.76 0c0.22,-15.53 6.61,-27.27 19.09,-35.23 12.48,-7.96 30.83,-11.92 55.06,-11.92 11.35,0 21.88,1.04 31.53,3.17 9.61,2.13 17.14,5 22.49,8.57 6.57,4.39 11.13,9.39 13.74,14.96 2.65,5.57 3.96,13.53 3.96,23.88l0 77.25c0,2.57 0.52,4.83 1.52,6.78 1,2 2.52,3.65 4.48,4.92l0 3.96 -55.33 0z"/>
  </g>
 </g>
</svg>
